<svg width="27" height="26" viewBox="0 0 27 26" fill="none" xmlns="http://www.w3.org/2000/svg">
<circle cx="13.4095" cy="12.8069" r="12.6121" fill="#4CCD2C"/>
<path fill-rule="evenodd" clip-rule="evenodd" d="M17.5809 7.49352C16.4093 6.55738 14.9134 6.05396 13.3738 6.07773C11.8341 6.10149 10.3567 6.65082 9.2187 7.62261C8.0807 8.5944 7.36039 9.92185 7.19293 11.3558C7.02547 12.7898 7.42237 14.2318 8.30917 15.4111C8.42461 15.5646 8.44634 15.7634 8.3665 15.9357L7.52872 17.7432L10.3441 17.2732C10.4642 17.2531 10.5881 17.2694 10.6977 17.3197C12.0806 17.954 13.6632 18.0937 15.1483 17.7126C16.6334 17.3315 17.919 16.4558 18.7639 15.2497C19.6087 14.0437 19.9547 12.5903 19.7369 11.1622C19.5191 9.73416 18.7525 8.42966 17.5809 7.49352ZM13.3548 5.00095C15.1744 4.97286 16.9423 5.56782 18.3269 6.67416C19.7115 7.78051 20.6175 9.32219 20.8749 11.0099C21.1323 12.6976 20.7234 14.4153 19.7249 15.8406C18.7265 17.2659 17.2071 18.3009 15.452 18.7513C13.7584 19.1859 11.9576 19.0474 10.3649 18.3636L6.67562 18.9795C6.46714 19.0143 6.25512 18.9389 6.12382 18.7833C5.99252 18.6276 5.96322 18.4169 6.04756 18.235L7.18685 15.7769C6.26743 14.4329 5.86418 12.8317 6.0502 11.2387C6.2481 9.54401 7.09939 7.9752 8.44429 6.82672C9.7892 5.67824 11.5353 5.02904 13.3548 5.00095Z" fill="white"/>
<path fill-rule="evenodd" clip-rule="evenodd" d="M10.7758 9.47249C10.9619 9.29814 11.2145 9.2002 11.4778 9.2002C11.7411 9.2002 11.9936 9.29814 12.1798 9.47249C12.3659 9.64685 12.4705 9.88332 12.4705 10.1299V10.8736C12.4705 11.1202 12.3659 11.3567 12.1798 11.531C12.0741 11.63 11.947 11.7044 11.8087 11.7502C11.9655 12.259 12.2579 12.7275 12.665 13.1088C13.072 13.49 13.5724 13.7637 14.1157 13.9106C14.1646 13.7811 14.244 13.6621 14.3497 13.5631C14.5359 13.3888 14.7884 13.2908 15.0517 13.2908H15.846C16.1093 13.2908 16.3618 13.3888 16.548 13.5631C16.7341 13.7375 16.8387 13.9739 16.8387 14.2205C16.8387 14.4671 16.7341 14.7035 16.548 14.8779C16.3618 15.0522 16.1093 15.1502 15.846 15.1502H15.0517C13.8406 15.1502 12.679 14.6996 11.8226 13.8976C10.9661 13.0956 10.485 12.0078 10.485 10.8736V10.1299C10.485 9.88332 10.5896 9.64685 10.7758 9.47249Z" fill="white"/>
</svg>
